# xmcd
#
# Track frame offsets:
#	150
#	13684
#	24738
#	42070
#	52996
#	66893
#	81192
#	92533
#	103262
#	119444
#	134015
#	149513
#
# Disc length: 2162 seconds
#
# Revision: 1
# Processed by: cddbd v1.4PL0 Copyright (c) Steve Scherf et al.
# Submitted via: dBpowerAMP V4.0
#
DISCID=a708700c
DTITLE=Alison Krauss and Union Station - I've Got That Old Feeling
DYEAR=1900
DGENRE=Bluegrass
TTITLE0=I've Got That Old Feeling
TTITLE1=Dark Skies
TTITLE2=Wish I Still Had You
TTITLE3=Endless Highway
TTITLE4=Winter of a Broken Heart
TTITLE5=It's Over
TTITLE6=Will You Be Leaving
TTITLE7=Steel Rails
TTITLE8=Tonight I'll Be Lonely Too
TTITLE9=One Good Reason
TTITLE10=That Makes One of Us
TTITLE11=Longest Highway
EXTD=
EXTT0=
EXTT1=
EXTT2=
EXTT3=
EXTT4=
EXTT5=
EXTT6=
EXTT7=
EXTT8=
EXTT9=
EXTT10=
EXTT11=
PLAYORDER=
